<svg xmlns="http://www.w3.org/2000/svg" width="40.788" height="48.536" viewBox="0 0 40.788 48.536"><path d="M34.384,27.9c-.022-3.976,1.777-6.978,5.419-9.188-2.037-2.914-5.115-4.519-9.178-4.833-3.847-.3-8.051,2.242-9.591,2.242-1.626,0-5.352-2.134-8.279-2.134C6.708,14.083.281,18.808.281,28.419a27.018,27.018,0,0,0,1.56,8.8c1.387,3.976,6.393,13.73,11.617,13.567,2.731-.065,4.659-1.94,8.214-1.94,3.446,0,5.234,1.94,8.279,1.94,5.266-.076,9.8-8.94,11.118-12.927C34,34.53,34.384,28.1,34.384,27.9ZM28.25,10.107a10.206,10.206,0,0,0,2.6-7.857,11.483,11.483,0,0,0-7.357,3.782,10.366,10.366,0,0,0-2.774,7.791c2.828.217,5.408-1.236,7.532-3.717Z" transform="translate(-0.281 -2.25)"/></svg>