<svg xmlns="http://www.w3.org/2000/svg" width="39.993" height="26.399" viewBox="0 0 39.993 26.399"><path d="M16.145,17.922s3.785-.294,3.785-4.918-3.1-6.882-7.02-6.882H0V31.975H12.908s7.882.258,7.882-7.632C20.788,24.34,21.133,17.922,16.145,17.922ZM5.688,10.714h7.22s1.756,0,1.756,2.688-1.032,3.082-2.2,3.082H5.688Zm6.855,16.665H5.688v-6.91h7.22s2.616-.036,2.616,3.55c0,3.025-1.954,3.338-2.982,3.36ZM31.3,12.7c-9.542,0-9.535,9.935-9.535,9.935s-.652,9.882,9.535,9.882c0,0,8.486.508,8.486-6.875H35.421s.144,2.782-3.976,2.782a4.089,4.089,0,0,1-4.368-4.5H39.923S41.341,12.7,31.3,12.7Zm3.882,7.772H27.033s.532-3.985,4.365-3.985,3.785,3.985,3.785,3.985ZM36.2,7.641H25.961v3.188H36.2V7.64Z" transform="translate(0 -6.122)" fill="#337efa"/></svg>