<svg xmlns="http://www.w3.org/2000/svg" width="27.002" height="33.617" viewBox="0 0 27.002 33.617"><path d="M80,34.951,78.1,13.595a1.15,1.15,0,0,0-1.142-1.051H73.285a6.784,6.784,0,0,0-13.551,0h-3.68a1.139,1.139,0,0,0-1.142,1.051l-1.9,21.377V35c0,.021-.007.049-.007.071a4.958,4.958,0,0,0,5.21,4.646H74.786A4.958,4.958,0,0,0,80,35.071.34.34,0,0,0,80,34.951Zm-19.135-16.4A1.149,1.149,0,0,0,62.011,17.4V14.857h8.968V17.4a1.149,1.149,0,1,0,2.3,0V14.857h2.609l1.8,20.263a2.7,2.7,0,0,1-2.9,2.3H58.21a2.7,2.7,0,0,1-2.9-2.3l1.8-20.263h2.609V17.4A1.149,1.149,0,0,0,60.861,18.551ZM66.5,8.406a4.531,4.531,0,0,1,4.47,4.139h-8.94A4.525,4.525,0,0,1,66.5,8.406Z" transform="translate(-53 -6.1)" fill="#221e38"/></svg>