<svg xmlns="http://www.w3.org/2000/svg" xmlns:xlink="http://www.w3.org/1999/xlink" width="233" height="226" viewBox="0 0 233 226"><defs><filter id="a" x="0" y="0" width="233" height="226" filterUnits="userSpaceOnUse"><feOffset dx="3" dy="18" input="SourceAlpha"/><feGaussianBlur stdDeviation="15" result="b"/><feFlood flood-opacity="0.141"/><feComposite operator="in" in2="b"/><feComposite in="SourceGraphic"/></filter></defs><g transform="translate(-279 -1682)"><g transform="matrix(1, 0, 0, 1, 279, 1682)" filter="url(#a)"><g transform="translate(42 27)" fill="#f5f5f5" stroke="#fff" stroke-width="5"><rect width="143" height="136" rx="15" stroke="none"/><rect x="2.5" y="2.5" width="138" height="131" rx="12.5" fill="none"/></g></g><path d="M-5829.6-3483.712c.093-.324.176-.652.281-.972a5.133,5.133,0,0,1,4.777-3.552c1.378-.028,2.757-.007,4.135-.007q10.742,0,21.481,0a5.179,5.179,0,0,1,5.413,5.43v3.123c.186.172.394.1.58.1,2.059.006,4.118,0,6.176.005a5.063,5.063,0,0,1,4.446,2.374q3.419,5.144,6.821,10.3a5.315,5.315,0,0,1,.886,3.01c0,3.39,0,6.78,0,10.17a5.175,5.175,0,0,1-5.23,5.288,5.34,5.34,0,0,0-1.7.043c-.555.2-.477.967-.757,1.453a6.61,6.61,0,0,1-6.5,3.659,6.537,6.537,0,0,1-5.961-4.557.759.759,0,0,0-.862-.61c-2.649.025-5.3.019-7.948,0a.562.562,0,0,0-.648.448,6.822,6.822,0,0,1-6.494,4.754,6.834,6.834,0,0,1-6.469-4.793.5.5,0,0,0-.565-.409,10.6,10.6,0,0,1-2.882-.181,5.174,5.174,0,0,1-3.8-4.935c-.017-1.695-.007-3.39-.012-5.085a.687.687,0,0,0-.033-.136,11.069,11.069,0,0,1-1.182-.2,5.09,5.09,0,0,1-3.829-4.025c-.028-.122-.019-.254-.118-.35Zm18.031,21.442q6.363,0,12.725,0a1.746,1.746,0,0,0,1.919-1.947q0-9.33,0-18.659a1.744,1.744,0,0,0-1.935-1.93q-12.671,0-25.343,0a1.76,1.76,0,0,0-1.973,2q0,9.275,0,18.55a1.76,1.76,0,0,0,1.988,1.985Q-5817.879-3462.269-5811.57-3462.27Zm18.057-13.879v11.809a5.186,5.186,0,0,1-5.447,5.506q-10.689,0-21.377,0a1.413,1.413,0,0,0-.665.063c0,1.81-.04,3.627.019,5.441a1.633,1.633,0,0,0,1.632,1.442c.519.017,1.039-.024,1.557.014.377.028.518-.12.635-.467a6.821,6.821,0,0,1,6.453-4.737,6.8,6.8,0,0,1,6.471,4.709.62.62,0,0,0,.726.495q3.976-.026,7.949,0a.7.7,0,0,0,.785-.564,6.651,6.651,0,0,1,5.982-4.617,6.79,6.79,0,0,1,6.555,3.776c.231.455.2,1.15.658,1.342a4.376,4.376,0,0,0,1.594.052,1.763,1.763,0,0,0,1.972-2c0-3.282-.008-6.564.008-9.846a2.6,2.6,0,0,0-.462-1.516c-2.022-3.039-4.095-6.046-6.021-9.145a3.245,3.245,0,0,0-3.319-1.788C-5789.679-3476.05-5791.563-3476.149-5793.514-3476.149Zm5.184,29.463a3.46,3.46,0,0,0,3.437-3.479,3.456,3.456,0,0,0-3.44-3.473,3.452,3.452,0,0,0-3.461,3.5A3.455,3.455,0,0,0-5788.33-3446.687Zm-22.359-6.952a3.455,3.455,0,0,0-3.453,3.46,3.459,3.459,0,0,0,3.423,3.492,3.457,3.457,0,0,0,3.479-3.489A3.453,3.453,0,0,0-5810.689-3453.639Z" transform="translate(6194.602 5243.25)" fill="#221e38" stroke="#000" stroke-width="0.4"/><path d="M-5477.5-3353.425q0-2.442,0-4.884a1.732,1.732,0,0,1,1.924-1.925c2.569-.015,2.334-.119,3.747,2.006q2.076,3.128,4.168,6.246a2.458,2.458,0,0,1,.454,1.507c-.023.732,0,1.467-.009,2.2a1.7,1.7,0,0,1-1.759,1.762q-3.382.019-6.762,0a1.688,1.688,0,0,1-1.759-1.761C-5477.509-3349.99-5477.5-3351.708-5477.5-3353.425Zm8.594,5.2c0-.83,0-1.6,0-2.367a.845.845,0,0,0-.188-.488q-2.384-3.573-4.764-7.148c-.086-.13-.15-.305-.343-.308-.528-.007-1.057,0-1.569,0v10.313Z" transform="translate(5880.333 5129.137)" fill="#221e38" stroke="#000" stroke-width="0.4"/></g></svg>