<svg xmlns="http://www.w3.org/2000/svg" xmlns:xlink="http://www.w3.org/1999/xlink" width="233" height="226" viewBox="0 0 233 226"><defs><filter id="a" x="0" y="0" width="233" height="226" filterUnits="userSpaceOnUse"><feOffset dy="18" input="SourceAlpha"/><feGaussianBlur stdDeviation="15" result="b"/><feFlood flood-opacity="0.122"/><feComposite operator="in" in2="b"/><feComposite in="SourceGraphic"/></filter></defs><g transform="translate(-1409 -1682)"><g transform="matrix(1, 0, 0, 1, 1409, 1682)" filter="url(#a)"><g transform="translate(45 27)" fill="#f5f5f5" stroke="#fff" stroke-width="5"><rect width="143" height="136" rx="15" stroke="none"/><rect x="2.5" y="2.5" width="138" height="131" rx="12.5" fill="none"/></g></g><g transform="translate(7645.101 5251.208)"><g transform="translate(-6144.101 -3494.208)"><path d="M-6106.186-3455.535c-2.385-.979-3.021-2.684-2.967-4.926.095-3.966.038-7.937.021-11.906a3.637,3.637,0,0,1,1.813-3.466c.731-.407.738-.919.662-1.575a13.365,13.365,0,0,0-13.237-11.745,13.354,13.354,0,0,0-13.3,11.672,1.413,1.413,0,0,0,.725,1.7,3.542,3.542,0,0,1,1.744,3.342c-.007,4.286.02,8.573-.01,12.858a3.855,3.855,0,0,1-4.09,4.08,8.958,8.958,0,0,1-9.234-8.887,30.519,30.519,0,0,1,.068-4.281,8.361,8.361,0,0,1,4.524-6.685,2.008,2.008,0,0,0,1.188-1.941c.654-8.864,7.986-16.3,16.564-16.867,9.682-.642,17.965,5.268,19.731,14.428.47,2.436.87,4.506,3.32,5.6.313.14.534.5.772.787,3.681,4.368,2.819,12.689-1.688,16.167a2.524,2.524,0,0,0-.991,1.346c-1.312,4.337-4.449,6.666-9.092,6.655a2.973,2.973,0,0,0-3.043,1.558,6.983,6.983,0,0,1-8.058,2.9,7.4,7.4,0,0,1-5.2-7.031,7.344,7.344,0,0,1,5.133-6.907,7.362,7.362,0,0,1,8.167,2.73c.413.571.421,1.582,1.31,1.651a6.866,6.866,0,0,0,3.89-.411C-6107.093-3454.88-6106.765-3455.145-6106.186-3455.535Zm2.219-5.328c2.256-.412,3.1-1.665,3.1-4.534.007-4.174-.6-5.343-3.1-5.806Zm-31.972.057v-10.436c-2.705.894-3.136,1.849-3.047,6.514A3.635,3.635,0,0,0-6135.938-3460.806Zm19.493,9.227a2.2,2.2,0,0,0-2.092-2.3,2.2,2.2,0,0,0-2.331,2.064,2.226,2.226,0,0,0,2.085,2.324A2.266,2.266,0,0,0-6116.445-3451.579Z" transform="translate(6144.101 3494.208)" fill="#221e38"/></g></g></g></svg>