<svg xmlns="http://www.w3.org/2000/svg" width="32" height="32" viewBox="0 0 32 32"><path d="M32,16a15.653,15.653,0,0,1-2.146,8.031,15.926,15.926,0,0,1-5.823,5.823,16,16,0,0,1-12.572,1.479,12.811,12.811,0,0,0,1.625-3.417q.188-.708,1.125-4.4a3.476,3.476,0,0,0,1.521,1.406,4.937,4.937,0,0,0,2.375.594,7.5,7.5,0,0,0,4.5-1.427,9.224,9.224,0,0,0,3.061-3.927,14.051,14.051,0,0,0,1.084-5.625,8.572,8.572,0,0,0-1.24-4.459,9.384,9.384,0,0,0-3.594-3.4A10.719,10.719,0,0,0,16.6,5.374a13.373,13.373,0,0,0-4.084.6A10.659,10.659,0,0,0,9.3,7.583a10.984,10.984,0,0,0-2.271,2.3,9.5,9.5,0,0,0-1.4,2.7,9.106,9.106,0,0,0-.447,2.792,8.325,8.325,0,0,0,.834,3.812A4.709,4.709,0,0,0,8.459,21.5q.625.25.792-.417.042-.146.167-.646t.167-.625a.95.95,0,0,0-.229-.9,4.74,4.74,0,0,1-1.062-3.146A7.585,7.585,0,0,1,16.167,8.1a6.752,6.752,0,0,1,4.907,1.708,5.9,5.9,0,0,1,1.76,4.437,11.887,11.887,0,0,1-1.427,6.02,4.192,4.192,0,0,1-3.657,2.48,2.547,2.547,0,0,1-2.042-.907,2.365,2.365,0,0,1-.479-2.177q.167-.729.552-1.948t.625-2.146A6.46,6.46,0,0,0,16.646,14a2.639,2.639,0,0,0-.563-1.729,1.956,1.956,0,0,0-1.6-.687,2.663,2.663,0,0,0-2.188,1.188,4.771,4.771,0,0,0-.9,2.958,5.556,5.556,0,0,0,.521,2.541L9.854,26.98a13.824,13.824,0,0,0-.271,3.687,15.953,15.953,0,0,1-6.938-5.854A15.5,15.5,0,0,1,0,16,15.653,15.653,0,0,1,2.146,7.969,15.926,15.926,0,0,1,7.969,2.146,15.653,15.653,0,0,1,16,0a15.653,15.653,0,0,1,8.031,2.146,15.926,15.926,0,0,1,5.823,5.823A15.653,15.653,0,0,1,32,16Z" fill="red"/></svg>