<svg xmlns="http://www.w3.org/2000/svg" width="40.647" height="43.774" viewBox="0 0 40.647 43.774"><path d="M3.375,4.3V42.7a.422.422,0,0,0,.72.3L24.089,23.5,4.095,4a.422.422,0,0,0-.72.3Z" transform="translate(-3.375 -1.615)" fill="#00caff"/><path d="M31.523,16.124,6.452,2.313,6.437,2.3a.427.427,0,0,0-.489.689L25.6,21.785Z" transform="translate(-2.425 -2.25)" fill="#00f076"/><path d="M5.95,38.485a.427.427,0,0,0,.489.689l.015-.008L31.523,25.354,25.6,19.691Z" transform="translate(-2.424 4.546)" fill="#f33248"/><path d="M35.406,17.323l-7-3.856-6.583,6.3,6.583,6.3,7-3.852a2.8,2.8,0,0,0,0-4.886Z" transform="translate(3.813 2.121)" fill="#ffbf00"/></svg>