<svg xmlns="http://www.w3.org/2000/svg" width="101.759" height="15.241" viewBox="0 0 101.759 15.241"><path d="M14.859,5.466l-4.692-.717L8.063.269a.5.5,0,0,0-.863,0L5.1,4.749.405,5.466a.477.477,0,0,0-.269.8L3.545,9.765,2.739,14.7a.477.477,0,0,0,.7.494l4.191-2.316L11.823,15.2a.477.477,0,0,0,.7-.494l-.806-4.94,3.409-3.494a.477.477,0,0,0-.269-.805Z" transform="translate(0 -0.018)" fill="#ffd138"/><path d="M14.859,5.466l-4.692-.717L8.063.269a.5.5,0,0,0-.863,0L5.1,4.749.405,5.466a.477.477,0,0,0-.269.8L3.545,9.765,2.739,14.7a.477.477,0,0,0,.7.494l4.191-2.316L11.823,15.2a.477.477,0,0,0,.7-.494l-.806-4.94,3.409-3.494a.477.477,0,0,0-.269-.805Z" transform="translate(21.624 -0.018)" fill="#ffd138"/><path d="M14.859,5.466l-4.692-.717L8.063.269a.5.5,0,0,0-.863,0L5.1,4.749.405,5.466a.477.477,0,0,0-.269.8L3.545,9.765,2.739,14.7a.477.477,0,0,0,.7.494l4.191-2.316L11.823,15.2a.477.477,0,0,0,.7-.494l-.806-4.94,3.409-3.494a.477.477,0,0,0-.269-.805Z" transform="translate(43.247 -0.018)" fill="#ffd138"/><path d="M14.859,5.466l-4.692-.717L8.063.269a.5.5,0,0,0-.863,0L5.1,4.749.405,5.466a.477.477,0,0,0-.269.8L3.545,9.765,2.739,14.7a.477.477,0,0,0,.7.494l4.191-2.316L11.823,15.2a.477.477,0,0,0,.7-.494l-.806-4.94,3.409-3.494a.477.477,0,0,0-.269-.805Z" transform="translate(64.871 -0.018)" fill="#ffd138"/><path d="M14.859,5.466l-4.692-.717L8.063.269a.5.5,0,0,0-.863,0L5.1,4.749.405,5.466a.477.477,0,0,0-.269.8L3.545,9.765,2.739,14.7a.477.477,0,0,0,.7.494l4.191-2.316L11.823,15.2a.477.477,0,0,0,.7-.494l-.806-4.94,3.409-3.494a.477.477,0,0,0-.269-.805Z" transform="translate(86.495 -0.018)" fill="#b9b9b9"/></svg>