<svg xmlns="http://www.w3.org/2000/svg" xmlns:xlink="http://www.w3.org/1999/xlink" width="233" height="226" viewBox="0 0 233 226"><defs><linearGradient id="a" x1="0.5" x2="0.5" y2="1" gradientUnits="objectBoundingBox"><stop offset="0" stop-color="#e92401"/><stop offset="1" stop-color="#ff4d2d"/></linearGradient><filter id="b" x="0" y="0" width="233" height="226" filterUnits="userSpaceOnUse"><feOffset dy="22" input="SourceAlpha"/><feGaussianBlur stdDeviation="15" result="c"/><feFlood flood-color="#e92401" flood-opacity="0.302"/><feComposite operator="in" in2="c"/><feComposite in="SourceGraphic"/></filter></defs><g transform="translate(-843 -1686)"><g transform="matrix(1, 0, 0, 1, 843, 1686)" filter="url(#b)"><g transform="translate(45 23)" fill="url(#a)"><path d="M 123 133.75 L 20 133.75 C 15.25879955291748 133.75 10.8013801574707 131.9036865234375 7.448860168457031 128.5511474609375 C 4.096320152282715 125.1986236572266 2.25 120.7412033081055 2.25 116 L 2.25 20 C 2.25 15.25879955291748 4.096320152282715 10.8013801574707 7.448860168457031 7.448860168457031 C 10.8013801574707 4.096320152282715 15.25879955291748 2.25 20 2.25 L 123 2.25 C 127.7412033081055 2.25 132.1986236572266 4.096320152282715 135.5511474609375 7.448860168457031 C 138.9036865234375 10.8013801574707 140.75 15.25879955291748 140.75 20 L 140.75 116 C 140.75 120.7412033081055 138.9036865234375 125.1986236572266 135.5511474609375 128.5511474609375 C 132.1986236572266 131.9036865234375 127.7412033081055 133.75 123 133.75 Z" stroke="none"/><path d="M 20 4.5 C 15.85980224609375 4.5 11.9674072265625 6.112289428710938 9.039840698242188 9.039848327636719 C 6.112289428710938 11.96741485595703 4.5 15.85980224609375 4.5 20 L 4.5 116 C 4.5 120.1401977539062 6.112289428710938 124.032585144043 9.039840698242188 126.9601516723633 C 11.9674072265625 129.8877105712891 15.85980224609375 131.5 20 131.5 L 123 131.5 C 127.1401977539062 131.5 131.0325927734375 129.8877105712891 133.9601593017578 126.9601516723633 C 136.8877105712891 124.032585144043 138.5 120.1401977539062 138.5 116 L 138.5 20 C 138.5 15.85980224609375 136.8877105712891 11.96741485595703 133.9601593017578 9.039848327636719 C 131.0325927734375 6.112289428710938 127.1401977539062 4.5 123 4.5 L 20 4.5 M 20 0 L 123 0 C 134.0457000732422 0 143 8.954307556152344 143 20 L 143 116 C 143 127.0456924438477 134.0457000732422 136 123 136 L 20 136 C 8.954299926757812 136 0 127.0456924438477 0 116 L 0 20 C 0 8.954307556152344 8.954299926757812 0 20 0 Z" stroke="none" fill="#fff"/></g></g><g transform="translate(7453.257 5234.25)"><path d="M-6516.208-3463.961q0-7.627,0-15.253c0-1.49.059-1.519,1.567-1.567,5.007-.158,9.978-.545,14.66-2.557a11.616,11.616,0,0,0,5.7-4.385c.41-.665,1.056-.7,1.466-.094,2.667,3.968,6.857,5.14,11.141,6.109a43.75,43.75,0,0,0,9.411.909c1.178.007,1.5.439,1.5,1.563-.033,9.928-.021,19.856-.019,29.785,0,3.683-1.646,6.692-3.889,9.438a42.739,42.739,0,0,1-10.855,8.992,70.983,70.983,0,0,1-6.941,3.775,1.813,1.813,0,0,1-1.7.156c-6.708-3.232-13.043-6.992-17.976-12.723a15.487,15.487,0,0,1-4.094-11.057C-6516.077-3455.229-6516.208-3459.6-6516.208-3463.961Zm4.82,1.358c0,3.523.07,7.048-.022,10.569a11.515,11.515,0,0,0,2.6,7.659c3.921,4.968,9.189,8.106,14.787,10.788a1.217,1.217,0,0,0,1.14-.044c5.161-2.463,10.01-5.382,13.853-9.709,1.948-2.194,3.4-4.677,3.409-7.724.029-7.807,0-15.613.026-23.42,0-1.04-.37-1.452-1.4-1.425a29.03,29.03,0,0,1-6.564-.541c-3.555-.72-7.041-1.6-9.3-4.84-.437-.627-.964-.518-1.353.076a9.79,9.79,0,0,1-5.075,3.632,28.78,28.78,0,0,1-10.6,1.664c-1.138-.012-1.548.381-1.53,1.545C-6511.352-3470.451-6511.387-3466.527-6511.387-3462.6Z" fill="#fff"/><path d="M-6443.26-3404.234c1.4,1.531,1.39,1.517.033,2.887a60.782,60.782,0,0,0-12.437,17.646c-.064.142-.158.269-.1.176l-10.419-9.771a17.254,17.254,0,0,1,2.464-2.323c.448-.406.786-.128,1.149.161,1.562,1.243,3.134,2.473,4.792,3.779A65.04,65.04,0,0,1-6443.26-3404.234Z" transform="translate(-38.043 -63.835)" fill="#fff"/></g></g></svg>