<svg xmlns="http://www.w3.org/2000/svg" width="34.412" height="30.712" viewBox="0 0 34.412 30.712"><g transform="translate(-881.92 -3961.144)"><path d="M15.244,29.559A2.559,2.559,0,1,1,12.684,27,2.559,2.559,0,0,1,15.244,29.559Z" transform="translate(880.753 3959.738)" fill="#ced3db"/><path d="M30.994,29.559A2.559,2.559,0,1,1,28.434,27,2.559,2.559,0,0,1,30.994,29.559Z" transform="translate(882.919 3959.738)" fill="#ced3db"/><path d="M36.226,9.041a1.913,1.913,0,0,0-1.484-.7H10.4l-.49-2.781A1.28,1.28,0,0,0,8.648,4.5H3.53a1.28,1.28,0,1,0,0,2.559H7.575l3.651,20.7a1.28,1.28,0,0,0,1.261,1.058H32.962a1.28,1.28,0,1,0,0-2.559h-19.4L13.11,23.7H32.438a1.925,1.925,0,0,0,1.884-1.542l2.3-11.517a1.92,1.92,0,0,0-.4-1.594Z" transform="translate(879.67 3956.644)" fill="#ced3db"/></g></svg>