<svg xmlns="http://www.w3.org/2000/svg" width="33.15" height="23.314" viewBox="0 0 33.15 23.314"><path d="M16.151,23.457V14.143L25.1,18.817l-8.954,4.641ZM35.816,12.531A7.155,7.155,0,0,0,34.5,9.239a4.743,4.743,0,0,0-3.321-1.4C26.539,7.5,19.58,7.5,19.58,7.5h-.013s-6.958,0-11.6.335a4.743,4.743,0,0,0-3.321,1.4A7.168,7.168,0,0,0,3.331,12.53,50.145,50.145,0,0,0,3,17.9V20.41a50.173,50.173,0,0,0,.331,5.365,7.157,7.157,0,0,0,1.318,3.29A5.609,5.609,0,0,0,8.3,30.482c2.652.253,11.27.331,11.27.331s6.967-.01,11.6-.345a4.742,4.742,0,0,0,3.321-1.4,7.166,7.166,0,0,0,1.318-3.29,50.173,50.173,0,0,0,.331-5.365V17.9a50.119,50.119,0,0,0-.331-5.365Z" transform="translate(-3 -7.5)" fill="red" fill-rule="evenodd"/></svg>